<?xml version="1.0" standalone="no"?>
<!DOCTYPE svg PUBLIC "-//W3C//DTD SVG 20010904//EN"
 "http://www.w3.org/TR/2001/REC-SVG-20010904/DTD/svg10.dtd">
<svg version="1.0" xmlns="http://www.w3.org/2000/svg"
 width="146.000000pt" height="146.000000pt" viewBox="0 0 146.000000 146.000000"
 preserveAspectRatio="xMidYMid meet">
<metadata>
Created by potrace 1.11, written by Peter Selinger 2001-2013
</metadata>
<g transform="translate(0.000000,146.000000) scale(0.100000,-0.100000)"
fill="#000000" stroke="none">
<path d="M577 1438 c-37 -9 -97 -31 -132 -48 l-64 -31 33 -44 c61 -79 76 -169
44 -264 -10 -30 -18 -57 -18 -61 0 -4 18 -19 40 -34 l39 -26 41 54 c70 93 108
105 212 68 32 -12 60 -17 63 -12 3 5 12 29 19 53 13 43 13 44 -14 55 -40 18
-97 79 -122 131 -17 34 -23 64 -23 113 0 78 3 77 -118 46z"/>
<path d="M1225 1261 c-10 -32 -87 -102 -134 -123 -29 -13 -72 -21 -115 -23
-70 -2 -70 -2 -82 -36 -21 -58 -19 -63 49 -84 34 -11 75 -32 91 -46 30 -26 32
-38 35 -176 1 -21 6 -23 56 -23 47 0 55 3 55 18 0 88 94 201 190 230 69 20 69
22 13 114 -37 60 -129 168 -143 168 -5 0 -11 -8 -15 -19z"/>
<path d="M631 1004 c-25 -32 -25 -37 -6 -73 31 -61 116 -41 123 29 7 64 -77
95 -117 44z"/>
<path d="M380 929 c-80 -65 -190 -86 -286 -53 -25 8 -47 14 -49 12 -22 -22
-20 -318 2 -318 2 0 27 7 54 16 94 31 211 6 281 -59 l26 -25 45 32 44 31 -34
45 c-47 61 -66 107 -58 139 3 14 25 53 47 85 l41 59 -34 28 c-41 34 -47 35
-79 8z"/>
<path d="M907 922 c-35 -38 -16 -97 36 -116 20 -7 76 21 78 39 0 5 2 18 4 27
2 10 -6 29 -17 43 -24 31 -77 34 -101 7z"/>
<path d="M470 782 c-48 -39 -18 -122 46 -122 51 0 83 71 52 113 -21 27 -70 32
-98 9z"/>
<path d="M1069 624 c-4 -81 -6 -87 -35 -113 -17 -15 -59 -36 -92 -46 -67 -20
-70 -25 -49 -84 l12 -35 72 -2 c50 -1 85 -8 118 -24 48 -23 121 -90 130 -121
4 -11 10 -19 15 -19 16 0 112 116 145 175 52 93 52 89 -4 104 -92 23 -171 106
-194 201 l-12 50 -51 0 -52 0 -3 -86z"/>
<path d="M915 638 c-29 -23 -33 -62 -9 -96 23 -33 79 -27 107 10 17 23 18 30
7 57 -11 27 -30 40 -67 47 -7 1 -24 -7 -38 -18z"/>
<path d="M652 559 c-63 -23 -39 -129 30 -129 36 0 68 32 68 69 0 27 -21 60
-38 62 -4 0 -14 2 -22 3 -8 2 -25 0 -38 -5z"/>
<path d="M473 497 c-27 -19 -39 -34 -34 -41 17 -23 37 -103 36 -146 -2 -63
-21 -113 -61 -166 l-34 -45 62 -29 c69 -31 189 -66 226 -66 22 1 23 6 26 66 4
103 46 177 132 234 l41 27 -14 41 c-8 23 -16 45 -19 49 -2 4 -30 -1 -61 -12
-109 -37 -150 -24 -214 70 -19 28 -36 50 -39 50 -3 0 -24 -15 -47 -32z"/>
</g>
</svg>
